<svg class="svg-icon" style="width: 1em; height: 1em;vertical-align: middle;fill: currentColor;overflow: hidden;" viewBox="0 0 1024 1024" version="1.1" xmlns="http://www.w3.org/2000/svg"><path d="M340.053333 682.666667L213.333333 810.666667c-14.08 12.8-32.853333 21.333333-53.333333 21.333333A74.666667 74.666667 0 0 1 85.333333 757.333333v-10.666666l42.666667-314.88A193.024 193.024 0 0 1 320 256h384c100.693333 0 183.04 77.226667 192 175.786667l42.666667 314.88v10.666666a74.666667 74.666667 0 0 1-74.666667 74.666667c-20.48 0-39.253333-8.533333-53.333333-21.333333l-126.72-128H340.053333M298.666667 341.333333v85.333334H213.333333v42.666666h85.333334v85.333334h42.666666v-85.333334h85.333334v-42.666666H341.333333V341.333333H298.666667m405.333333 0a32 32 0 0 0-32 32 32 32 0 0 0 32 32 32 32 0 0 0 32-32 32 32 0 0 0-32-32m-74.666667 74.666667a32 32 0 0 0-32 32 32 32 0 0 0 32 32 32 32 0 0 0 32-32 32 32 0 0 0-32-32m149.333334 0a32 32 0 0 0-32 32 32 32 0 0 0 32 32 32 32 0 0 0 32-32 32 32 0 0 0-32-32M704 490.666667a32 32 0 0 0-32 32 32 32 0 0 0 32 32 32 32 0 0 0 32-32 32 32 0 0 0-32-32z" fill="" /></svg>